<svg id="Layer_1" data-name="Layer 1" xmlns="http://www.w3.org/2000/svg" viewBox="0 0 1066.43 187.82"><defs><style>.cls-1{fill:#fff;}</style></defs><title>LiquidApps_TMwhite</title><path class="cls-1" d="M110.22,93.82a18.19,18.19,0,0,0-36.38,0h0A18.2,18.2,0,0,0,92,112h18.18V93.84h0Z"/><path class="cls-1" d="M172.12,173.83V93.9a79.84,79.84,0,0,0-36.79-67.27l-.11,28.24-.13,33.89.31,48.3H94.89c-.94.06-1.89.11-2.85.11a43.33,43.33,0,1,1,18.18-82.66l.15-38.43A79.92,79.92,0,1,0,92.11,173.82h80Z"/><path class="cls-1" d="M241,125.4V64.64h8.87v52.64H271v8.12Z"/><path class="cls-1" d="M307.74,74.66v-10h8.54v10Zm0,50.74V80h8.54v45.48Z"/><path class="cls-1" d="M395.43,140.59V119.08h-.21A18.61,18.61,0,0,1,380,126.55a23.93,23.93,0,0,1-.24-47.86c7.22,0,13.71,3.77,16.09,7.3H396V80h7.89v60.67Zm.79-37.76c0-9.12-6.82-16.34-15.85-16.34-8.62,0-15.52,6.89-15.52,16.09s6.9,16.17,15.77,16.17A15.78,15.78,0,0,0,396.22,102.83Z"/><path class="cls-1" d="M478.68,125.4v-4.92h-.16c-2.22,3.86-7.39,6.07-13.38,6.07-9.77,0-19-5.25-19-21.26V80h8.54v24.66c0,9.53,3.53,14.12,11.33,14.12s11.9-5.5,11.9-14.28V80h8.54v45.48Z"/><path class="cls-1" d="M528.77,74.66v-10h8.54v10Zm0,50.74V80h8.54v45.48Z"/><path class="cls-1" d="M613.5,125.4v-4.92h-.16c-2.55,4.19-7.14,6.4-13.63,6.4-13.79,0-22.83-10.59-22.83-24.38,0-13.63,9.28-24.23,22.58-24.23a17.7,17.7,0,0,1,13.39,5.42v-19h13.63v60.76Zm.09-23a11.54,11.54,0,0,0-23.08,0c0,6.9,4.85,11.75,11.42,11.75A11.42,11.42,0,0,0,613.59,103a5.23,5.23,0,0,0,0-.56Z"/><path class="cls-1" d="M707.35,125.4l-3-8.78h-21.1L680,125.4H663.42l24.39-60.76h12.24l24.17,60.76Zm-13.3-41.79-.24-.08-6.24,20.77h12.72Z"/><path class="cls-1" d="M761.13,140.59V79.84h12.81v5h.28a17.55,17.55,0,0,1,14.29-6.57c13,0,22.17,10.6,22.17,24.8,0,13-9.12,23.89-22.17,23.89-5.34,0-10-1.64-13.72-5.66v19.29ZM797,102.66a11.55,11.55,0,1,0,0,.07Z"/><path class="cls-1" d="M849.65,140.59V79.84h12.8v5h.25A17.55,17.55,0,0,1,877,78.27c13,0,22.17,10.6,22.17,24.8,0,13-9.12,23.89-22.17,23.89-5.34,0-10-1.64-13.71-5.66v19.29Zm35.88-37.93a11.55,11.55,0,1,0,0,.06Z"/><path class="cls-1" d="M957.53,92.64c-.08-2.62-2-3.44-4.18-3.44s-3.94,1.31-3.94,3c0,2.47,2.21,3.7,8.54,5.34,10.83,2.87,14.36,7.23,14.36,13.88,0,9.52-8.21,15.51-18.55,15.51s-17.54-5.8-18.54-15.07h13.55c.41,2.87,2.46,4.18,5.17,4.18,2.38,0,4.76-1.39,4.76-3.53,0-2.54-1.56-3.86-8.37-6-11.5-3.53-14.53-8-14.53-13.38,0-9,8.45-14.87,17.65-14.87,9.85,0,16.83,5.42,17.49,14.37Z"/><path class="cls-1" d="M1041,91.23a4.54,4.54,0,0,1,1.68,1.26,5.79,5.79,0,0,1,.91,1.51,5.13,5.13,0,0,1,.33,1.89,5.37,5.37,0,0,1-.65,2.52,3.63,3.63,0,0,1-2.13,1.76,3.32,3.32,0,0,1,1.76,1.42,6,6,0,0,1,.52,2.81v1.21a8.7,8.7,0,0,0,.1,1.67,1.51,1.51,0,0,0,.69,1v.45h-4.15q-.16-.6-.24-1a8.85,8.85,0,0,1-.16-1.55l0-1.68a3.37,3.37,0,0,0-.59-2.29,3,3,0,0,0-2.14-.58h-3.68v7.06h-3.67v-18h8.61A7.9,7.9,0,0,1,1041,91.23Zm-7.78,2.66v4.84h4a4.23,4.23,0,0,0,1.81-.3,2,2,0,0,0,1.07-2,2.27,2.27,0,0,0-1-2.2,3.69,3.69,0,0,0-1.73-.32Z"/><path class="cls-1" d="M1036.39,120.7a21.15,21.15,0,1,1,21.15-21.15A21.18,21.18,0,0,1,1036.39,120.7Zm0-40.14a19,19,0,1,0,19,19A19,19,0,0,0,1036.39,80.56Z"/></svg>